<?xml version="1.0" encoding="UTF-8" standalone="no"?>
<!DOCTYPE svg PUBLIC "-//W3C//DTD SVG 1.1//EN"
 "http://www.w3.org/Graphics/SVG/1.1/DTD/svg11.dtd">
<!-- Generated by graphviz version 2.43.0 (0)
 -->
<!-- Title: Mode2Navigation Pages: 1 -->
<svg width="1448pt" height="1613pt"
 viewBox="0.00 0.00 1448.40 1612.90" xmlns="http://www.w3.org/2000/svg" xmlns:xlink="http://www.w3.org/1999/xlink">
<g id="graph0" class="graph" transform="scale(1 1) rotate(0) translate(25.2 1587.7)">
<title>Mode2Navigation</title>
<polygon fill="white" stroke="transparent" points="-25.2,25.2 -25.2,-1587.7 1423.2,-1587.7 1423.2,25.2 -25.2,25.2"/>
<g id="clust1" class="cluster">
<title>cluster_inputs</title>
<path fill="#eff6ff" stroke="#dbeafe" d="M66,-1427.5C66,-1427.5 999,-1427.5 999,-1427.5 1005,-1427.5 1011,-1433.5 1011,-1439.5 1011,-1439.5 1011,-1494.5 1011,-1494.5 1011,-1500.5 1005,-1506.5 999,-1506.5 999,-1506.5 66,-1506.5 66,-1506.5 60,-1506.5 54,-1500.5 54,-1494.5 54,-1494.5 54,-1439.5 54,-1439.5 54,-1433.5 60,-1427.5 66,-1427.5"/>
<text text-anchor="middle" x="532.5" y="-1490.5" font-family="DejaVu Sans" font-size="15.00" fill="#1e3a8a">Sensor and Pose Inputs</text>
</g>
<g id="clust2" class="cluster">
<title>cluster_mapper</title>
<path fill="#f0fdf4" stroke="#dcfce7" d="M539,-838.5C539,-838.5 945,-838.5 945,-838.5 951,-838.5 957,-844.5 957,-850.5 957,-850.5 957,-1381.5 957,-1381.5 957,-1387.5 951,-1393.5 945,-1393.5 945,-1393.5 539,-1393.5 539,-1393.5 533,-1393.5 527,-1387.5 527,-1381.5 527,-1381.5 527,-850.5 527,-850.5 527,-844.5 533,-838.5 539,-838.5"/>
<text text-anchor="middle" x="742" y="-1377.5" font-family="DejaVu Sans" font-size="15.00" fill="#14532d">Global Exploration Layer: voxel_mapper</text>
</g>
<g id="clust3" class="cluster">
<title>cluster_controller</title>
<path fill="#f5f3ff" stroke="#ede9fe" d="M72,-206C72,-206 507,-206 507,-206 513,-206 519,-212 519,-218 519,-218 519,-1013.5 519,-1013.5 519,-1019.5 513,-1025.5 507,-1025.5 507,-1025.5 72,-1025.5 72,-1025.5 66,-1025.5 60,-1019.5 60,-1013.5 60,-1013.5 60,-218 60,-218 60,-212 66,-206 72,-206"/>
<text text-anchor="middle" x="289.5" y="-1009.5" font-family="DejaVu Sans" font-size="15.00" fill="#4c1d95">Mode 2 Controller: search_mission_controller</text>
</g>
<g id="clust4" class="cluster">
<title>cluster_px4</title>
<path fill="#fff7ed" stroke="#fed7aa" d="M20,-8C20,-8 269,-8 269,-8 275,-8 281,-14 281,-20 281,-20 281,-160 281,-160 281,-166 275,-172 269,-172 269,-172 20,-172 20,-172 14,-172 8,-166 8,-160 8,-160 8,-20 8,-20 8,-14 14,-8 20,-8"/>
<text text-anchor="middle" x="144.5" y="-156" font-family="DejaVu Sans" font-size="15.00" fill="#7c2d12">PX4 Offboard and World Feedback</text>
</g>
<!-- title&#45;&gt;depth -->
<!-- depth&#45;&gt;voxels -->
<g id="edge2" class="edge">
<title>depth&#45;&gt;voxels</title>
<path fill="none" stroke="#475569" stroke-width="1.25" d="M528.6,-1435.42C554.7,-1416.23 596,-1385.87 624.24,-1365.11"/>
<polygon fill="#475569" stroke="#475569" stroke-width="1.25" points="625.93,-1367.13 630.41,-1360.57 622.82,-1362.9 625.93,-1367.13"/>
<text text-anchor="middle" x="608" y="-1404.5" font-family="DejaVu Sans" font-size="10.00" fill="#334155">integrate depth</text>
</g>
<!-- lidar&#45;&gt;vfh -->
<g id="edge23" class="edge">
<title>lidar&#45;&gt;vfh</title>
<path fill="none" stroke="#475569" stroke-width="1.25" d="M933.2,-1435.5C946.16,-1417.82 964,-1393.5 964,-1393.5 964,-1393.5 995,-1342.5 995,-1342.5 995,-1342.5 995,-1342.5 995,-526.5 995,-526.5 683.22,-469.02 518.83,-438.72"/>
<polygon fill="#475569" stroke="#475569" stroke-width="1.25" points="518.96,-436.07 511.11,-437.3 518.01,-441.24 518.96,-436.07"/>
<text text-anchor="middle" x="1036.5" y="-971" font-family="DejaVu Sans" font-size="10.00" fill="#334155">sector histogram</text>
</g>
<!-- pose&#45;&gt;voxels -->
<g id="edge3" class="edge">
<title>pose&#45;&gt;voxels</title>
<path fill="none" stroke="#475569" stroke-width="1.25" d="M701.75,-1435.17C692.47,-1416.77 678.1,-1388.29 667.74,-1367.76"/>
<polygon fill="#475569" stroke="#475569" stroke-width="1.25" points="669.98,-1366.37 664.26,-1360.86 665.3,-1368.74 669.98,-1366.37"/>
<text text-anchor="middle" x="718.5" y="-1404.5" font-family="DejaVu Sans" font-size="10.00" fill="#334155">sensor pose</text>
</g>
<!-- ranges&#45;&gt;terminate -->
<g id="edge4" class="edge">
<title>ranges&#45;&gt;terminate</title>
<path fill="none" stroke="#475569" stroke-width="1.25" d="M140.83,-1435.17C140.55,-1403.64 140,-1342.5 140,-1342.5 140,-1342.5 140,-1342.5 140,-972.5 140,-972.5 220.31,-926.24 274.81,-894.84"/>
<polygon fill="#475569" stroke="#475569" stroke-width="1.25" points="276.14,-897.1 281.32,-891.08 273.52,-892.55 276.14,-897.1"/>
<text text-anchor="middle" x="157" y="-1159" font-family="DejaVu Sans" font-size="10.00" fill="#334155">guards</text>
</g>
<!-- target&#45;&gt;scan_state -->
<g id="edge5" class="edge">
<title>target&#45;&gt;scan_state</title>
<path fill="none" stroke="#475569" stroke-width="1.25" d="M322,-1435.17C322,-1403.64 322,-1342.5 322,-1342.5 322,-1342.5 322,-1342.5 322,-1075.5 322,-1075.5 322,-1030.09 322,-1000.16"/>
<polygon fill="#475569" stroke="#475569" stroke-width="1.25" points="324.63,-1000.06 322,-992.56 319.38,-1000.06 324.63,-1000.06"/>
<text text-anchor="middle" x="378" y="-1206.5" font-family="DejaVu Sans" font-size="10.00" fill="#334155">confirmed target event</text>
</g>
<!-- voxels&#45;&gt;slice -->
<g id="edge6" class="edge">
<title>voxels&#45;&gt;slice</title>
<path fill="none" stroke="#475569" stroke-width="1.25" d="M655,-1322.49C655,-1311.04 655,-1296.03 655,-1283.32"/>
<polygon fill="#475569" stroke="#475569" stroke-width="1.25" points="657.63,-1283.26 655,-1275.76 652.38,-1283.26 657.63,-1283.26"/>
</g>
<!-- slice&#45;&gt;clusters -->
<g id="edge7" class="edge">
<title>slice&#45;&gt;clusters</title>
<path fill="none" stroke="#475569" stroke-width="1.25" d="M655,-1237.13C655,-1223.15 655,-1203.75 655,-1188.23"/>
<polygon fill="#475569" stroke="#475569" stroke-width="1.25" points="657.63,-1188.02 655,-1180.52 652.38,-1188.02 657.63,-1188.02"/>
</g>
<!-- clusters&#45;&gt;viewpoints -->
<g id="edge8" class="edge">
<title>clusters&#45;&gt;viewpoints</title>
<path fill="none" stroke="#475569" stroke-width="1.25" d="M655,-1142.49C655,-1131.04 655,-1116.03 655,-1103.32"/>
<polygon fill="#475569" stroke="#475569" stroke-width="1.25" points="657.63,-1103.26 655,-1095.76 652.38,-1103.26 657.63,-1103.26"/>
</g>
<!-- viewpoints&#45;&gt;scoring -->
<g id="edge9" class="edge">
<title>viewpoints&#45;&gt;scoring</title>
<path fill="none" stroke="#475569" stroke-width="1.25" d="M655,-1057.44C655,-1043.5 655,-1023.83 655,-1007.14"/>
<polygon fill="#475569" stroke="#475569" stroke-width="1.25" points="657.63,-1006.73 655,-999.23 652.38,-1006.73 657.63,-1006.73"/>
</g>
<!-- scoring&#45;&gt;astar -->
<g id="edge10" class="edge">
<title>scoring&#45;&gt;astar</title>
<path fill="none" stroke="#475569" stroke-width="1.25" d="M650.36,-947.92C647.2,-931.16 643.02,-909.01 639.82,-892.05"/>
<polygon fill="#475569" stroke="#475569" stroke-width="1.25" points="642.4,-891.55 638.43,-884.66 637.24,-892.52 642.4,-891.55"/>
<text text-anchor="middle" x="703.5" y="-917" font-family="DejaVu Sans" font-size="10.00" fill="#334155">best selected viewpoint</text>
</g>
<!-- scoring&#45;&gt;empty_path -->
<g id="edge11" class="edge">
<title>scoring&#45;&gt;empty_path</title>
<path fill="none" stroke="#475569" stroke-width="1.25" d="M714,-947.92C741.82,-936.32 769,-925 769,-925 769,-925 798.33,-905.5 823.12,-889.02"/>
<polygon fill="#475569" stroke="#475569" stroke-width="1.25" points="824.85,-891.03 829.64,-884.69 821.94,-886.66 824.85,-891.03"/>
<text text-anchor="middle" x="839" y="-917" font-family="DejaVu Sans" font-size="10.00" fill="#334155">all candidates rejected</text>
</g>
<!-- astar&#45;&gt;latch -->
<g id="edge12" class="edge">
<title>astar&#45;&gt;latch</title>
<path fill="none" stroke="#475569" stroke-width="1.25" d="M596.75,-846.4C557.77,-827.95 497.33,-799.35 456.06,-779.82"/>
<polygon fill="#475569" stroke="#475569" stroke-width="1.25" points="457,-777.36 449.09,-776.53 454.75,-782.11 457,-777.36"/>
<text text-anchor="middle" x="578.5" y="-809" font-family="DejaVu Sans" font-size="10.00" fill="#334155">/px4_0/frontier_path</text>
</g>
<!-- empty_path&#45;&gt;hold -->
<g id="edge13" class="edge">
<title>empty_path&#45;&gt;hold</title>
<path fill="none" stroke="#475569" stroke-width="1.25" d="M843.07,-846.04C820.14,-815.67 777,-758.5 777,-758.5 777,-758.5 777,-758.5 777,-526.5 777,-526.5 314,-445 314,-445 314,-445 311.01,-444.36 305.99,-443.28"/>
<polygon fill="#475569" stroke="#475569" stroke-width="1.25" points="306.51,-440.71 298.63,-441.7 305.41,-445.84 306.51,-440.71"/>
<text text-anchor="middle" x="815" y="-626.5" font-family="DejaVu Sans" font-size="10.00" fill="#334155">clear stale path</text>
</g>
<!-- scan_state&#45;&gt;terminate -->
<g id="edge14" class="edge">
<title>scan_state&#45;&gt;terminate</title>
<path fill="none" stroke="#475569" stroke-width="1.25" d="M322.35,-954.04C322.64,-938.78 323.05,-916.75 323.39,-898.61"/>
<polygon fill="#475569" stroke="#475569" stroke-width="1.25" points="326.02,-898.66 323.54,-891.11 320.77,-898.56 326.02,-898.66"/>
</g>
<!-- terminate&#45;&gt;inspect -->
<g id="edge15" class="edge">
<title>terminate&#45;&gt;inspect</title>
<path fill="none" stroke="#475569" stroke-width="1.25" d="M257.75,-839.92C226.52,-828.32 196,-817 196,-817 196,-817 189.73,-803.89 183.12,-790.09"/>
<polygon fill="#475569" stroke="#475569" stroke-width="1.25" points="185.48,-788.94 179.87,-783.31 180.74,-791.21 185.48,-788.94"/>
<text text-anchor="middle" x="226.5" y="-809" font-family="DejaVu Sans" font-size="10.00" fill="#334155">target found</text>
</g>
<!-- terminate&#45;&gt;latch -->
<g id="edge17" class="edge">
<title>terminate&#45;&gt;latch</title>
<path fill="none" stroke="#475569" stroke-width="1.25" d="M345.22,-839.92C355.22,-828.32 365,-817 365,-817 365,-817 379.18,-798.97 391.79,-782.93"/>
<polygon fill="#475569" stroke="#475569" stroke-width="1.25" points="394.13,-784.21 396.7,-776.69 390,-780.96 394.13,-784.21"/>
<text text-anchor="middle" x="406" y="-809" font-family="DejaVu Sans" font-size="10.00" fill="#334155">continue scan</text>
</g>
<!-- terminate&#45;&gt;altitude -->
<g id="edge28" class="edge">
<title>terminate&#45;&gt;altitude</title>
<path fill="none" stroke="#475569" stroke-width="1.25" d="M308.47,-839.92C301.15,-828.32 294,-817 294,-817 294,-817 273,-732 273,-732 273,-732 241.1,-721.7 209.28,-711.43"/>
<polygon fill="#475569" stroke="#475569" stroke-width="1.25" points="210.02,-708.91 202.07,-709.1 208.4,-713.9 210.02,-708.91"/>
<text text-anchor="middle" x="326" y="-809" font-family="DejaVu Sans" font-size="10.00" fill="#334155">scan altitude</text>
</g>
<!-- inspect&#45;&gt;scan_state -->
<g id="edge16" class="edge">
<title>inspect&#45;&gt;scan_state</title>
<path fill="none" stroke="#475569" stroke-width="1.25" d="M169.67,-783.11C172.27,-821.43 177,-891 177,-891 177,-891 240.16,-926.5 283.11,-950.64"/>
<polygon fill="#475569" stroke="#475569" stroke-width="1.25" points="282,-953.03 289.82,-954.41 284.57,-948.45 282,-953.03"/>
<text text-anchor="middle" x="195.5" y="-863" font-family="DejaVu Sans" font-size="10.00" fill="#334155">resume</text>
</g>
<!-- latch&#45;&gt;hold -->
<g id="edge18" class="edge">
<title>latch&#45;&gt;hold</title>
<path fill="none" stroke="#475569" stroke-width="1.25" d="M384.91,-738.44C312.96,-688.64 117,-553 117,-553 117,-553 117,-502 117,-502 117,-502 145.49,-474.03 169.08,-450.86"/>
<polygon fill="#475569" stroke="#475569" stroke-width="1.25" points="171.13,-452.52 174.65,-445.4 167.46,-448.78 171.13,-452.52"/>
<text text-anchor="middle" x="185.5" y="-579" font-family="DejaVu Sans" font-size="10.00" fill="#334155">no route</text>
</g>
<!-- latch&#45;&gt;waypoint -->
<g id="edge19" class="edge">
<title>latch&#45;&gt;waypoint</title>
<path fill="none" stroke="#475569" stroke-width="1.25" d="M411,-738.38C411,-716.68 411,-680.19 411,-655.62"/>
<polygon fill="#475569" stroke="#475569" stroke-width="1.25" points="413.63,-655.59 411,-648.09 408.38,-655.59 413.63,-655.59"/>
<text text-anchor="middle" x="440.5" y="-687.5" font-family="DejaVu Sans" font-size="10.00" fill="#334155">active route</text>
</g>
<!-- waypoint&#45;&gt;watchdog -->
<g id="edge20" class="edge">
<title>waypoint&#45;&gt;watchdog</title>
<path fill="none" stroke="#475569" stroke-width="1.25" d="M383.29,-609.98C360.75,-595.32 328.5,-574.35 302.36,-557.35"/>
<polygon fill="#475569" stroke="#475569" stroke-width="1.25" points="303.58,-555.01 295.86,-553.12 300.72,-559.41 303.58,-555.01"/>
</g>
<!-- waypoint&#45;&gt;vfh -->
<g id="edge24" class="edge">
<title>waypoint&#45;&gt;vfh</title>
<path fill="none" stroke="#475569" stroke-width="1.25" d="M411.78,-609.95C413.3,-574.88 416.68,-497.12 418.59,-452.9"/>
<polygon fill="#475569" stroke="#475569" stroke-width="1.25" points="421.22,-452.92 418.92,-445.31 415.98,-452.69 421.22,-452.92"/>
<text text-anchor="middle" x="449.5" y="-525" font-family="DejaVu Sans" font-size="10.00" fill="#334155">goal direction</text>
</g>
<!-- watchdog&#45;&gt;hold -->
<g id="edge21" class="edge">
<title>watchdog&#45;&gt;hold</title>
<path fill="none" stroke="#475569" stroke-width="1.25" d="M238.33,-501.92C229.06,-490.32 220,-479 220,-479 220,-479 215.6,-466.13 210.93,-452.46"/>
<polygon fill="#475569" stroke="#475569" stroke-width="1.25" points="213.39,-451.56 208.48,-445.31 208.42,-453.26 213.39,-451.56"/>
<text text-anchor="middle" x="266.5" y="-471" font-family="DejaVu Sans" font-size="10.00" fill="#334155">stuck / no progress</text>
</g>
<!-- watchdog&#45;&gt;vfh -->
<g id="edge22" class="edge">
<title>watchdog&#45;&gt;vfh</title>
<path fill="none" stroke="#475569" stroke-width="1.25" d="M295.57,-501.92C319.51,-486.25 350.64,-465.89 375.77,-449.44"/>
<polygon fill="#475569" stroke="#475569" stroke-width="1.25" points="377.51,-451.44 382.35,-445.14 374.64,-447.04 377.51,-451.44"/>
<text text-anchor="middle" x="376" y="-471" font-family="DejaVu Sans" font-size="10.00" fill="#334155">route healthy</text>
</g>
<!-- vfh&#45;&gt;yaw -->
<g id="edge25" class="edge">
<title>vfh&#45;&gt;yaw</title>
<path fill="none" stroke="#475569" stroke-width="1.25" d="M389.84,-393.9C370.44,-378.08 345.4,-357.66 326.36,-342.13"/>
<polygon fill="#475569" stroke="#475569" stroke-width="1.25" points="327.62,-339.77 320.15,-337.07 324.31,-343.84 327.62,-339.77"/>
<text text-anchor="middle" x="394.5" y="-363" font-family="DejaVu Sans" font-size="10.00" fill="#334155">safe XY vector</text>
</g>
<!-- yaw&#45;&gt;velocity -->
<g id="edge26" class="edge">
<title>yaw&#45;&gt;velocity</title>
<path fill="none" stroke="#475569" stroke-width="1.25" d="M264.58,-298.99C241.05,-286.31 209.43,-269.26 184.47,-255.81"/>
<polygon fill="#475569" stroke="#475569" stroke-width="1.25" points="185.46,-253.37 177.62,-252.12 182.97,-257.99 185.46,-253.37"/>
</g>
<!-- altitude&#45;&gt;velocity -->
<g id="edge27" class="edge">
<title>altitude&#45;&gt;velocity</title>
<path fill="none" stroke="#475569" stroke-width="1.25" d="M132.94,-670.93C110.97,-640.55 69,-582.5 69,-582.5 69,-582.5 69,-582.5 69,-317 69,-317 100.43,-282.22 122.59,-257.69"/>
<polygon fill="#475569" stroke="#475569" stroke-width="1.25" points="124.65,-259.33 127.73,-252.01 120.75,-255.81 124.65,-259.33"/>
</g>
<!-- velocity&#45;&gt;px4 -->
<g id="edge29" class="edge">
<title>velocity&#45;&gt;px4</title>
<path fill="none" stroke="#475569" stroke-width="1.25" d="M144,-213.67C144,-195.51 144,-167.54 144,-147.07"/>
<polygon fill="#475569" stroke="#475569" stroke-width="1.25" points="146.63,-146.86 144,-139.36 141.38,-146.86 146.63,-146.86"/>
<text text-anchor="middle" x="209" y="-183" font-family="DejaVu Sans" font-size="10.00" fill="#334155">/fmu/in/trajectory_setpoint</text>
</g>
<!-- px4&#45;&gt;motion -->
<g id="edge30" class="edge">
<title>px4&#45;&gt;motion</title>
<path fill="none" stroke="#475569" stroke-width="1.25" d="M144,-100.99C144,-89.54 144,-74.53 144,-61.82"/>
<polygon fill="#475569" stroke="#475569" stroke-width="1.25" points="146.63,-61.76 144,-54.26 141.38,-61.76 146.63,-61.76"/>
</g>
<!-- motion&#45;&gt;depth -->
<g id="edge31" class="edge">
<title>motion&#45;&gt;depth</title>
<path fill="none" stroke="#64748b" stroke-width="1.25" stroke-dasharray="5,2" d="M175.2,-54.11C208.34,-73.34 256,-101 256,-101 256,-101 325,-191 325,-191 325,-191 523,-206 523,-206 523,-206 569,-371 569,-371 569,-371 1018,-502 1018,-502 1018,-502 1077,-925 1077,-925 1077,-925 1085,-948 1085,-948 1085,-948 1085,-1025.5 1085,-1025.5 1085,-1025.5 1077,-1033.5 1077,-1033.5 1077,-1033.5 1018,-1299.5 1018,-1299.5 1018,-1299.5 964,-1393.5 964,-1393.5 964,-1393.5 600,-1427.5 600,-1427.5 600,-1427.5 590.79,-1430 578.07,-1433.44"/>
<polygon fill="#64748b" stroke="#64748b" stroke-width="1.25" points="577.23,-1430.95 570.68,-1435.44 578.6,-1436.02 577.23,-1430.95"/>
<text text-anchor="middle" x="1101" y="-755" font-family="DejaVu Sans" font-size="10.00" fill="#334155">new RGB&#45;D frame</text>
</g>
<!-- motion&#45;&gt;lidar -->
<g id="edge32" class="edge">
<title>motion&#45;&gt;lidar</title>
<path fill="none" stroke="#64748b" stroke-width="1.25" stroke-dasharray="5,2" d="M189.13,-54.11C237.06,-73.34 306,-101 306,-101 306,-101 380,-172 380,-172 380,-172 552,-206 552,-206 552,-206 625,-252 625,-252 625,-252 1044,-502 1044,-502 1044,-502 1152,-732 1152,-732 1152,-732 1152,-783 1152,-783 1152,-783 1107,-1025.5 1107,-1025.5 1107,-1025.5 1050,-1275.5 1050,-1275.5 1050,-1275.5 1007,-1393.5 1007,-1393.5 1007,-1393.5 977.28,-1414 952.58,-1431.03"/>
<polygon fill="#64748b" stroke="#64748b" stroke-width="1.25" points="950.79,-1429.08 946.1,-1435.5 953.77,-1433.4 950.79,-1429.08"/>
<text text-anchor="middle" x="1191.5" y="-755" font-family="DejaVu Sans" font-size="10.00" fill="#334155">new LiDAR scan</text>
</g>
<!-- motion&#45;&gt;pose -->
<g id="edge33" class="edge">
<title>motion&#45;&gt;pose</title>
<path fill="none" stroke="#64748b" stroke-width="1.25" stroke-dasharray="5,2" d="M225.64,-53.8C276.38,-64.87 332,-77 332,-77 332,-77 628,-206 628,-206 628,-206 1007,-394 1007,-394 1007,-394 1129,-468 1129,-468 1129,-468 1305,-732 1305,-732 1305,-732 1305,-783 1305,-783 1305,-783 1142,-1275.5 1142,-1275.5 1142,-1275.5 1123,-1299.5 1123,-1299.5 1123,-1299.5 1007,-1393.5 1007,-1393.5 1007,-1393.5 822,-1427.5 822,-1427.5 822,-1427.5 810.75,-1430.14 795.4,-1433.73"/>
<polygon fill="#64748b" stroke="#64748b" stroke-width="1.25" points="794.8,-1431.18 788.09,-1435.44 795.99,-1436.29 794.8,-1431.18"/>
<text text-anchor="middle" x="1351.5" y="-755" font-family="DejaVu Sans" font-size="10.00" fill="#334155">updated local pose</text>
</g>
<!-- title -->
<g id="node1" class="node">
<title>title</title>
<path fill="#f8fafc" stroke="transparent" stroke-width="1.2" d="M693.5,-1562.5C693.5,-1562.5 314.5,-1562.5 314.5,-1562.5 310.5,-1562.5 306.5,-1558.5 306.5,-1554.5 306.5,-1554.5 306.5,-1546.5 306.5,-1546.5 306.5,-1542.5 310.5,-1538.5 314.5,-1538.5 314.5,-1538.5 693.5,-1538.5 693.5,-1538.5 697.5,-1538.5 701.5,-1542.5 701.5,-1546.5 701.5,-1546.5 701.5,-1554.5 701.5,-1554.5 701.5,-1558.5 697.5,-1562.5 693.5,-1562.5"/>
<text text-anchor="middle" x="504" y="-1544.9" font-family="DejaVu Sans" font-size="22.00" fill="#0f172a">Mode 2: SCAN Navigation Hierarchy</text>
</g>
<!-- depth -->
<g id="node2" class="node">
<title>depth</title>
<path fill="#dbeafe" stroke="#334155" stroke-width="1.2" d="M572.5,-1473.5C572.5,-1473.5 435.5,-1473.5 435.5,-1473.5 429.5,-1473.5 423.5,-1467.5 423.5,-1461.5 423.5,-1461.5 423.5,-1447.5 423.5,-1447.5 423.5,-1441.5 429.5,-1435.5 435.5,-1435.5 435.5,-1435.5 572.5,-1435.5 572.5,-1435.5 578.5,-1435.5 584.5,-1441.5 584.5,-1447.5 584.5,-1447.5 584.5,-1461.5 584.5,-1461.5 584.5,-1467.5 578.5,-1473.5 572.5,-1473.5"/>
<text text-anchor="middle" x="504" y="-1457.9" font-family="DejaVu Sans" font-size="12.00" fill="#0f172a">RGB&#45;D depth image</text>
<text text-anchor="middle" x="504" y="-1444.9" font-family="DejaVu Sans" font-size="12.00" fill="#0f172a">3D occupancy evidence</text>
</g>
<!-- lidar -->
<g id="node3" class="node">
<title>lidar</title>
<path fill="#dbeafe" stroke="#334155" stroke-width="1.2" d="M991,-1473.5C991,-1473.5 849,-1473.5 849,-1473.5 843,-1473.5 837,-1467.5 837,-1461.5 837,-1461.5 837,-1447.5 837,-1447.5 837,-1441.5 843,-1435.5 849,-1435.5 849,-1435.5 991,-1435.5 991,-1435.5 997,-1435.5 1003,-1441.5 1003,-1447.5 1003,-1447.5 1003,-1461.5 1003,-1461.5 1003,-1467.5 997,-1473.5 991,-1473.5"/>
<text text-anchor="middle" x="920" y="-1457.9" font-family="DejaVu Sans" font-size="12.00" fill="#0f172a">2D LiDAR scan</text>
<text text-anchor="middle" x="920" y="-1444.9" font-family="DejaVu Sans" font-size="12.00" fill="#0f172a">360 deg obstacle ranges</text>
</g>
<!-- pose -->
<g id="node4" class="node">
<title>pose</title>
<path fill="#dbeafe" stroke="#334155" stroke-width="1.2" d="M795,-1473.5C795,-1473.5 627,-1473.5 627,-1473.5 621,-1473.5 615,-1467.5 615,-1461.5 615,-1461.5 615,-1447.5 615,-1447.5 615,-1441.5 621,-1435.5 627,-1435.5 627,-1435.5 795,-1435.5 795,-1435.5 801,-1435.5 807,-1441.5 807,-1447.5 807,-1447.5 807,-1461.5 807,-1461.5 807,-1467.5 801,-1473.5 795,-1473.5"/>
<text text-anchor="middle" x="711" y="-1457.9" font-family="DejaVu Sans" font-size="12.00" fill="#0f172a">GNSS&#45;denied pose</text>
<text text-anchor="middle" x="711" y="-1444.9" font-family="DejaVu Sans" font-size="12.00" fill="#0f172a">PX4 EKF2 + SLAM/odom_ned</text>
</g>
<!-- ranges -->
<g id="node5" class="node">
<title>ranges</title>
<path fill="#dbeafe" stroke="#334155" stroke-width="1.2" d="M208.5,-1473.5C208.5,-1473.5 73.5,-1473.5 73.5,-1473.5 67.5,-1473.5 61.5,-1467.5 61.5,-1461.5 61.5,-1461.5 61.5,-1447.5 61.5,-1447.5 61.5,-1441.5 67.5,-1435.5 73.5,-1435.5 73.5,-1435.5 208.5,-1435.5 208.5,-1435.5 214.5,-1435.5 220.5,-1441.5 220.5,-1447.5 220.5,-1447.5 220.5,-1461.5 220.5,-1461.5 220.5,-1467.5 214.5,-1473.5 208.5,-1473.5"/>
<text text-anchor="middle" x="141" y="-1457.9" font-family="DejaVu Sans" font-size="12.00" fill="#0f172a">Range up/down</text>
<text text-anchor="middle" x="141" y="-1444.9" font-family="DejaVu Sans" font-size="12.00" fill="#0f172a">floor and ceiling guards</text>
</g>
<!-- target -->
<g id="node6" class="node">
<title>target</title>
<path fill="#dbeafe" stroke="#334155" stroke-width="1.2" d="M381,-1473.5C381,-1473.5 263,-1473.5 263,-1473.5 257,-1473.5 251,-1467.5 251,-1461.5 251,-1461.5 251,-1447.5 251,-1447.5 251,-1441.5 257,-1435.5 263,-1435.5 263,-1435.5 381,-1435.5 381,-1435.5 387,-1435.5 393,-1441.5 393,-1447.5 393,-1447.5 393,-1461.5 393,-1461.5 393,-1467.5 387,-1473.5 381,-1473.5"/>
<text text-anchor="middle" x="322" y="-1457.9" font-family="DejaVu Sans" font-size="12.00" fill="#0f172a">Target detector</text>
<text text-anchor="middle" x="322" y="-1444.9" font-family="DejaVu Sans" font-size="12.00" fill="#0f172a">red&#45;can TargetFound</text>
</g>
<!-- voxels -->
<g id="node7" class="node">
<title>voxels</title>
<path fill="#dcfce7" stroke="#334155" stroke-width="1.2" d="M729.5,-1360.5C729.5,-1360.5 580.5,-1360.5 580.5,-1360.5 574.5,-1360.5 568.5,-1354.5 568.5,-1348.5 568.5,-1348.5 568.5,-1334.5 568.5,-1334.5 568.5,-1328.5 574.5,-1322.5 580.5,-1322.5 580.5,-1322.5 729.5,-1322.5 729.5,-1322.5 735.5,-1322.5 741.5,-1328.5 741.5,-1334.5 741.5,-1334.5 741.5,-1348.5 741.5,-1348.5 741.5,-1354.5 735.5,-1360.5 729.5,-1360.5"/>
<text text-anchor="middle" x="655" y="-1344.9" font-family="DejaVu Sans" font-size="12.00" fill="#0f172a">3D log&#45;odds voxel map</text>
<text text-anchor="middle" x="655" y="-1331.9" font-family="DejaVu Sans" font-size="12.00" fill="#0f172a">free / occupied / unknown</text>
</g>
<!-- slice -->
<g id="node8" class="node">
<title>slice</title>
<path fill="#dcfce7" stroke="#334155" stroke-width="1.2" d="M744,-1275.5C744,-1275.5 566,-1275.5 566,-1275.5 560,-1275.5 554,-1269.5 554,-1263.5 554,-1263.5 554,-1249.5 554,-1249.5 554,-1243.5 560,-1237.5 566,-1237.5 566,-1237.5 744,-1237.5 744,-1237.5 750,-1237.5 756,-1243.5 756,-1249.5 756,-1249.5 756,-1263.5 756,-1263.5 756,-1269.5 750,-1275.5 744,-1275.5"/>
<text text-anchor="middle" x="655" y="-1259.9" font-family="DejaVu Sans" font-size="12.00" fill="#0f172a">Current altitude slice</text>
<text text-anchor="middle" x="655" y="-1246.9" font-family="DejaVu Sans" font-size="12.00" fill="#0f172a">obstacle mask + world bounds</text>
</g>
<!-- clusters -->
<g id="node9" class="node">
<title>clusters</title>
<path fill="#dcfce7" stroke="#334155" stroke-width="1.2" d="M731.5,-1180.5C731.5,-1180.5 578.5,-1180.5 578.5,-1180.5 572.5,-1180.5 566.5,-1174.5 566.5,-1168.5 566.5,-1168.5 566.5,-1154.5 566.5,-1154.5 566.5,-1148.5 572.5,-1142.5 578.5,-1142.5 578.5,-1142.5 731.5,-1142.5 731.5,-1142.5 737.5,-1142.5 743.5,-1148.5 743.5,-1154.5 743.5,-1154.5 743.5,-1168.5 743.5,-1168.5 743.5,-1174.5 737.5,-1180.5 731.5,-1180.5"/>
<text text-anchor="middle" x="655" y="-1164.9" font-family="DejaVu Sans" font-size="12.00" fill="#0f172a">Frontier clusters</text>
<text text-anchor="middle" x="655" y="-1151.9" font-family="DejaVu Sans" font-size="12.00" fill="#0f172a">reachable component first</text>
</g>
<!-- viewpoints -->
<g id="node10" class="node">
<title>viewpoints</title>
<path fill="#dcfce7" stroke="#334155" stroke-width="1.2" d="M735.5,-1095.5C735.5,-1095.5 574.5,-1095.5 574.5,-1095.5 568.5,-1095.5 562.5,-1089.5 562.5,-1083.5 562.5,-1083.5 562.5,-1069.5 562.5,-1069.5 562.5,-1063.5 568.5,-1057.5 574.5,-1057.5 574.5,-1057.5 735.5,-1057.5 735.5,-1057.5 741.5,-1057.5 747.5,-1063.5 747.5,-1069.5 747.5,-1069.5 747.5,-1083.5 747.5,-1083.5 747.5,-1089.5 741.5,-1095.5 735.5,-1095.5"/>
<text text-anchor="middle" x="655" y="-1079.9" font-family="DejaVu Sans" font-size="12.00" fill="#0f172a">Viewpoint candidates</text>
<text text-anchor="middle" x="655" y="-1066.9" font-family="DejaVu Sans" font-size="12.00" fill="#0f172a">standoff + yaw + clearance</text>
</g>
<!-- scoring -->
<g id="node11" class="node">
<title>scoring</title>
<path fill="#dcfce7" stroke="#334155" stroke-width="1.2" d="M740.5,-999C740.5,-999 569.5,-999 569.5,-999 563.5,-999 557.5,-993 557.5,-987 557.5,-987 557.5,-960 557.5,-960 557.5,-954 563.5,-948 569.5,-948 569.5,-948 740.5,-948 740.5,-948 746.5,-948 752.5,-954 752.5,-960 752.5,-960 752.5,-987 752.5,-987 752.5,-993 746.5,-999 740.5,-999"/>
<text text-anchor="middle" x="655" y="-983.4" font-family="DejaVu Sans" font-size="12.00" fill="#0f172a">Score candidates</text>
<text text-anchor="middle" x="655" y="-970.4" font-family="DejaVu Sans" font-size="12.00" fill="#0f172a">info gain + path cost + yaw</text>
<text text-anchor="middle" x="655" y="-957.4" font-family="DejaVu Sans" font-size="12.00" fill="#0f172a">progress + Voronoi clearance</text>
</g>
<!-- astar -->
<g id="node12" class="node">
<title>astar</title>
<path fill="#bbf7d0" stroke="#334155" stroke-width="1.2" d="M722.5,-884.5C722.5,-884.5 547.5,-884.5 547.5,-884.5 541.5,-884.5 535.5,-878.5 535.5,-872.5 535.5,-872.5 535.5,-858.5 535.5,-858.5 535.5,-852.5 541.5,-846.5 547.5,-846.5 547.5,-846.5 722.5,-846.5 722.5,-846.5 728.5,-846.5 734.5,-852.5 734.5,-858.5 734.5,-858.5 734.5,-872.5 734.5,-872.5 734.5,-878.5 728.5,-884.5 722.5,-884.5"/>
<text text-anchor="middle" x="635" y="-868.9" font-family="DejaVu Sans" font-size="12.00" fill="#0f172a">A* route to selected viewpoint</text>
<text text-anchor="middle" x="635" y="-855.9" font-family="DejaVu Sans" font-size="12.00" fill="#0f172a">frontier_path</text>
</g>
<!-- empty_path -->
<g id="node13" class="node">
<title>empty_path</title>
<path fill="#fef9c3" stroke="#334155" stroke-width="1.2" d="M937,-884.5C937,-884.5 777,-884.5 777,-884.5 771,-884.5 765,-878.5 765,-872.5 765,-872.5 765,-858.5 765,-858.5 765,-852.5 771,-846.5 777,-846.5 777,-846.5 937,-846.5 937,-846.5 943,-846.5 949,-852.5 949,-858.5 949,-858.5 949,-872.5 949,-872.5 949,-878.5 943,-884.5 937,-884.5"/>
<text text-anchor="middle" x="857" y="-868.9" font-family="DejaVu Sans" font-size="12.00" fill="#0f172a">No valid route</text>
<text text-anchor="middle" x="857" y="-855.9" font-family="DejaVu Sans" font-size="12.00" fill="#0f172a">publish empty frontier_path</text>
</g>
<!-- scan_state -->
<g id="node14" class="node">
<title>scan_state</title>
<path fill="#ede9fe" stroke="#334155" stroke-width="1.2" d="M373.5,-992.5C373.5,-992.5 270.5,-992.5 270.5,-992.5 264.5,-992.5 258.5,-986.5 258.5,-980.5 258.5,-980.5 258.5,-966.5 258.5,-966.5 258.5,-960.5 264.5,-954.5 270.5,-954.5 270.5,-954.5 373.5,-954.5 373.5,-954.5 379.5,-954.5 385.5,-960.5 385.5,-966.5 385.5,-966.5 385.5,-980.5 385.5,-980.5 385.5,-986.5 379.5,-992.5 373.5,-992.5"/>
<text text-anchor="middle" x="322" y="-976.9" font-family="DejaVu Sans" font-size="12.00" fill="#0f172a">SCAN state</text>
<text text-anchor="middle" x="322" y="-963.9" font-family="DejaVu Sans" font-size="12.00" fill="#0f172a">20 Hz control loop</text>
</g>
<!-- terminate -->
<g id="node15" class="node">
<title>terminate</title>
<path fill="#ede9fe" stroke="#334155" stroke-width="1.2" d="M407,-891C407,-891 241,-891 241,-891 235,-891 229,-885 229,-879 229,-879 229,-852 229,-852 229,-846 235,-840 241,-840 241,-840 407,-840 407,-840 413,-840 419,-846 419,-852 419,-852 419,-879 419,-879 419,-885 413,-891 407,-891"/>
<text text-anchor="middle" x="324" y="-875.4" font-family="DejaVu Sans" font-size="12.00" fill="#0f172a">Mission / layer checks</text>
<text text-anchor="middle" x="324" y="-862.4" font-family="DejaVu Sans" font-size="12.00" fill="#0f172a">coverage, timeout, all layers</text>
<text text-anchor="middle" x="324" y="-849.4" font-family="DejaVu Sans" font-size="12.00" fill="#0f172a">floor and ceiling guards</text>
</g>
<!-- inspect -->
<g id="node16" class="node">
<title>inspect</title>
<path fill="#fce7f3" stroke="#334155" stroke-width="1.2" d="M246,-783C246,-783 90,-783 90,-783 84,-783 78,-777 78,-771 78,-771 78,-744 78,-744 78,-738 84,-732 90,-732 90,-732 246,-732 246,-732 252,-732 258,-738 258,-744 258,-744 258,-771 258,-771 258,-777 252,-783 246,-783"/>
<text text-anchor="middle" x="168" y="-767.4" font-family="DejaVu Sans" font-size="12.00" fill="#0f172a">TARGET_INSPECT</text>
<text text-anchor="middle" x="168" y="-754.4" font-family="DejaVu Sans" font-size="12.00" fill="#0f172a">hold XY, look at target 10 s</text>
<text text-anchor="middle" x="168" y="-741.4" font-family="DejaVu Sans" font-size="12.00" fill="#0f172a">then resume SCAN</text>
</g>
<!-- latch -->
<g id="node17" class="node">
<title>latch</title>
<path fill="#ede9fe" stroke="#334155" stroke-width="1.2" d="M485,-776.5C485,-776.5 337,-776.5 337,-776.5 331,-776.5 325,-770.5 325,-764.5 325,-764.5 325,-750.5 325,-750.5 325,-744.5 331,-738.5 337,-738.5 337,-738.5 485,-738.5 485,-738.5 491,-738.5 497,-744.5 497,-750.5 497,-750.5 497,-764.5 497,-764.5 497,-770.5 491,-776.5 485,-776.5"/>
<text text-anchor="middle" x="411" y="-760.9" font-family="DejaVu Sans" font-size="12.00" fill="#0f172a">Latch active frontier_path</text>
<text text-anchor="middle" x="411" y="-747.9" font-family="DejaVu Sans" font-size="12.00" fill="#0f172a">follow waypoints in order</text>
</g>
<!-- hold -->
<g id="node18" class="node">
<title>hold</title>
<path fill="#fef9c3" stroke="#334155" stroke-width="1.2" d="M286.5,-445C286.5,-445 113.5,-445 113.5,-445 107.5,-445 101.5,-439 101.5,-433 101.5,-433 101.5,-406 101.5,-406 101.5,-400 107.5,-394 113.5,-394 113.5,-394 286.5,-394 286.5,-394 292.5,-394 298.5,-400 298.5,-406 298.5,-406 298.5,-433 298.5,-433 298.5,-439 292.5,-445 286.5,-445"/>
<text text-anchor="middle" x="200" y="-429.4" font-family="DejaVu Sans" font-size="12.00" fill="#0f172a">No active route</text>
<text text-anchor="middle" x="200" y="-416.4" font-family="DejaVu Sans" font-size="12.00" fill="#0f172a">hold position + slow yaw scan</text>
<text text-anchor="middle" x="200" y="-403.4" font-family="DejaVu Sans" font-size="12.00" fill="#0f172a">wait for mapper</text>
</g>
<!-- waypoint -->
<g id="node19" class="node">
<title>waypoint</title>
<path fill="#ede9fe" stroke="#334155" stroke-width="1.2" d="M482.5,-648C482.5,-648 339.5,-648 339.5,-648 333.5,-648 327.5,-642 327.5,-636 327.5,-636 327.5,-622 327.5,-622 327.5,-616 333.5,-610 339.5,-610 339.5,-610 482.5,-610 482.5,-610 488.5,-610 494.5,-616 494.5,-622 494.5,-622 494.5,-636 494.5,-636 494.5,-642 488.5,-648 482.5,-648"/>
<text text-anchor="middle" x="411" y="-632.4" font-family="DejaVu Sans" font-size="12.00" fill="#0f172a">Active waypoint</text>
<text text-anchor="middle" x="411" y="-619.4" font-family="DejaVu Sans" font-size="12.00" fill="#0f172a">N/E target + desired yaw</text>
</g>
<!-- watchdog -->
<g id="node20" class="node">
<title>watchdog</title>
<path fill="#fee2e2" stroke="#334155" stroke-width="1.2" d="M372,-553C372,-553 144,-553 144,-553 138,-553 132,-547 132,-541 132,-541 132,-514 132,-514 132,-508 138,-502 144,-502 144,-502 372,-502 372,-502 378,-502 384,-508 384,-514 384,-514 384,-541 384,-541 384,-547 378,-553 372,-553"/>
<text text-anchor="middle" x="258" y="-537.4" font-family="DejaVu Sans" font-size="12.00" fill="#0f172a">Progress watchdog</text>
<text text-anchor="middle" x="258" y="-524.4" font-family="DejaVu Sans" font-size="12.00" fill="#0f172a">route stalled or all VFH sectors blocked</text>
<text text-anchor="middle" x="258" y="-511.4" font-family="DejaVu Sans" font-size="12.00" fill="#0f172a">clear route and wait for mapper</text>
</g>
<!-- vfh -->
<g id="node21" class="node">
<title>vfh</title>
<path fill="#ddd6fe" stroke="#334155" stroke-width="1.2" d="M499,-445C499,-445 341,-445 341,-445 335,-445 329,-439 329,-433 329,-433 329,-406 329,-406 329,-400 335,-394 341,-394 341,-394 499,-394 499,-394 505,-394 511,-400 511,-406 511,-406 511,-433 511,-433 511,-439 505,-445 499,-445"/>
<text text-anchor="middle" x="420" y="-429.4" font-family="DejaVu Sans" font-size="12.00" fill="#0f172a">Holonomic VFH local safety</text>
<text text-anchor="middle" x="420" y="-416.4" font-family="DejaVu Sans" font-size="12.00" fill="#0f172a">72 sectors x 5 deg</text>
<text text-anchor="middle" x="420" y="-403.4" font-family="DejaVu Sans" font-size="12.00" fill="#0f172a">choose closest open valley</text>
</g>
<!-- yaw -->
<g id="node22" class="node">
<title>yaw</title>
<path fill="#ede9fe" stroke="#334155" stroke-width="1.2" d="M371.5,-337C371.5,-337 224.5,-337 224.5,-337 218.5,-337 212.5,-331 212.5,-325 212.5,-325 212.5,-311 212.5,-311 212.5,-305 218.5,-299 224.5,-299 224.5,-299 371.5,-299 371.5,-299 377.5,-299 383.5,-305 383.5,-311 383.5,-311 383.5,-325 383.5,-325 383.5,-331 377.5,-337 371.5,-337"/>
<text text-anchor="middle" x="298" y="-321.4" font-family="DejaVu Sans" font-size="12.00" fill="#0f172a">Camera&#45;aware yaw</text>
<text text-anchor="middle" x="298" y="-308.4" font-family="DejaVu Sans" font-size="12.00" fill="#0f172a">rate limit + speed scaling</text>
</g>
<!-- altitude -->
<g id="node23" class="node">
<title>altitude</title>
<path fill="#ede9fe" stroke="#334155" stroke-width="1.2" d="M212,-709C212,-709 80,-709 80,-709 74,-709 68,-703 68,-697 68,-697 68,-683 68,-683 68,-677 74,-671 80,-671 80,-671 212,-671 212,-671 218,-671 224,-677 224,-683 224,-683 224,-697 224,-697 224,-703 218,-709 212,-709"/>
<text text-anchor="middle" x="146" y="-693.4" font-family="DejaVu Sans" font-size="12.00" fill="#0f172a">Altitude P&#45;controller</text>
<text text-anchor="middle" x="146" y="-680.4" font-family="DejaVu Sans" font-size="12.00" fill="#0f172a">hold current scan layer</text>
</g>
<!-- velocity -->
<g id="node24" class="node">
<title>velocity</title>
<path fill="#c4b5fd" stroke="#334155" stroke-width="1.2" d="M190.5,-252C190.5,-252 97.5,-252 97.5,-252 91.5,-252 85.5,-246 85.5,-240 85.5,-240 85.5,-226 85.5,-226 85.5,-220 91.5,-214 97.5,-214 97.5,-214 190.5,-214 190.5,-214 196.5,-214 202.5,-220 202.5,-226 202.5,-226 202.5,-240 202.5,-240 202.5,-246 196.5,-252 190.5,-252"/>
<text text-anchor="middle" x="144" y="-236.4" font-family="DejaVu Sans" font-size="12.00" fill="#0f172a">Velocity setpoint</text>
<text text-anchor="middle" x="144" y="-223.4" font-family="DejaVu Sans" font-size="12.00" fill="#0f172a">vn, ve, vz, yaw</text>
</g>
<!-- px4 -->
<g id="node25" class="node">
<title>px4</title>
<path fill="#fed7aa" stroke="#334155" stroke-width="1.2" d="M228.5,-139C228.5,-139 59.5,-139 59.5,-139 53.5,-139 47.5,-133 47.5,-127 47.5,-127 47.5,-113 47.5,-113 47.5,-107 53.5,-101 59.5,-101 59.5,-101 228.5,-101 228.5,-101 234.5,-101 240.5,-107 240.5,-113 240.5,-113 240.5,-127 240.5,-127 240.5,-133 234.5,-139 228.5,-139"/>
<text text-anchor="middle" x="144" y="-123.4" font-family="DejaVu Sans" font-size="12.00" fill="#0f172a">PX4 Offboard velocity control</text>
<text text-anchor="middle" x="144" y="-110.4" font-family="DejaVu Sans" font-size="12.00" fill="#0f172a">EKF2 local position</text>
</g>
<!-- motion -->
<g id="node26" class="node">
<title>motion</title>
<path fill="#fed7aa" stroke="#334155" stroke-width="1.2" d="M213.5,-54C213.5,-54 74.5,-54 74.5,-54 68.5,-54 62.5,-48 62.5,-42 62.5,-42 62.5,-28 62.5,-28 62.5,-22 68.5,-16 74.5,-16 74.5,-16 213.5,-16 213.5,-16 219.5,-16 225.5,-22 225.5,-28 225.5,-28 225.5,-42 225.5,-42 225.5,-48 219.5,-54 213.5,-54"/>
<text text-anchor="middle" x="144" y="-38.4" font-family="DejaVu Sans" font-size="12.00" fill="#0f172a">Drone motion in Gazebo</text>
<text text-anchor="middle" x="144" y="-25.4" font-family="DejaVu Sans" font-size="12.00" fill="#0f172a">new observations</text>
</g>
</g>
</svg>
