<?xml version="1.0" encoding="UTF-8" standalone="no"?>
<!DOCTYPE svg PUBLIC "-//W3C//DTD SVG 1.1//EN"
 "http://www.w3.org/Graphics/SVG/1.1/DTD/svg11.dtd">
<!-- Generated by graphviz version 2.43.0 (0)
 -->
<!-- Title: Mode2NavigationSlide Pages: 1 -->
<svg width="1291pt" height="1181pt"
 viewBox="0.00 0.00 1291.20 1181.20" xmlns="http://www.w3.org/2000/svg" xmlns:xlink="http://www.w3.org/1999/xlink">
<g id="graph0" class="graph" transform="scale(1 1) rotate(0) translate(21.6 1159.6)">
<title>Mode2NavigationSlide</title>
<polygon fill="white" stroke="transparent" points="-21.6,21.6 -21.6,-1159.6 1269.6,-1159.6 1269.6,21.6 -21.6,21.6"/>
<!-- title&#45;&gt;sensors -->
<!-- sensors&#45;&gt;mapper -->
<g id="edge2" class="edge">
<title>sensors&#45;&gt;mapper</title>
<path fill="none" stroke="#475569" stroke-width="1.35" d="M974.5,-1028.58C974.5,-1015.87 974.5,-999.33 974.5,-985.36"/>
<polygon fill="#475569" stroke="#475569" stroke-width="1.35" points="977.3,-985.04 974.5,-977.04 971.7,-985.04 977.3,-985.04"/>
<text text-anchor="middle" x="1012" y="-1000.2" font-family="DejaVu Sans" font-size="11.00" fill="#334155">depth + pose</text>
</g>
<!-- mapper&#45;&gt;candidates -->
<g id="edge3" class="edge">
<title>mapper&#45;&gt;candidates</title>
<path fill="none" stroke="#475569" stroke-width="1.35" d="M974.5,-934.98C974.5,-925.14 974.5,-913.13 974.5,-902.37"/>
<polygon fill="#475569" stroke="#475569" stroke-width="1.35" points="977.3,-902.07 974.5,-894.07 971.7,-902.07 977.3,-902.07"/>
</g>
<!-- candidates&#45;&gt;scoring -->
<g id="edge4" class="edge">
<title>candidates&#45;&gt;scoring</title>
<path fill="none" stroke="#475569" stroke-width="1.35" d="M974.5,-851.98C974.5,-842.14 974.5,-830.13 974.5,-819.37"/>
<polygon fill="#475569" stroke="#475569" stroke-width="1.35" points="977.3,-819.07 974.5,-811.07 971.7,-819.07 977.3,-819.07"/>
</g>
<!-- scoring&#45;&gt;route -->
<g id="edge5" class="edge">
<title>scoring&#45;&gt;route</title>
<path fill="none" stroke="#475569" stroke-width="1.35" d="M948.95,-768.88C941.29,-762.65 932.95,-755.67 925.5,-749 916.29,-740.76 906.55,-731.39 897.96,-722.91"/>
<polygon fill="#475569" stroke="#475569" stroke-width="1.35" points="899.87,-720.85 892.22,-717.2 895.92,-724.82 899.87,-720.85"/>
<text text-anchor="middle" x="981.5" y="-740.2" font-family="DejaVu Sans" font-size="11.00" fill="#334155">best valid viewpoint</text>
</g>
<!-- scoring&#45;&gt;hold -->
<g id="edge6" class="edge">
<title>scoring&#45;&gt;hold</title>
<path fill="none" stroke="#475569" stroke-width="1.35" d="M1017.71,-768.86C1026.4,-763.35 1034.89,-756.72 1041.5,-749 1057.71,-730.07 1062.5,-721.92 1062.5,-697 1062.5,-697 1062.5,-697 1062.5,-210 1062.5,-169.67 963.72,-146.64 878.05,-134.24"/>
<polygon fill="#475569" stroke="#475569" stroke-width="1.35" points="878.38,-131.46 870.06,-133.11 877.59,-137.01 878.38,-131.46"/>
<text text-anchor="middle" x="1112" y="-443.2" font-family="DejaVu Sans" font-size="11.00" fill="#334155">no safe candidate</text>
</g>
<!-- route&#45;&gt;scan -->
<g id="edge7" class="edge">
<title>route&#45;&gt;scan</title>
<path fill="none" stroke="#475569" stroke-width="1.35" d="M854.97,-674.58C843.54,-661.27 828.5,-643.76 816.17,-629.4"/>
<polygon fill="#475569" stroke="#475569" stroke-width="1.35" points="818.05,-627.29 810.71,-623.04 813.8,-630.94 818.05,-627.29"/>
<text text-anchor="middle" x="874" y="-646.2" font-family="DejaVu Sans" font-size="11.00" fill="#334155">frontier_path</text>
</g>
<!-- scan&#45;&gt;route_latch -->
<g id="edge8" class="edge">
<title>scan&#45;&gt;route_latch</title>
<path fill="none" stroke="#475569" stroke-width="1.35" d="M678.26,-580.95C652.43,-575.4 625.33,-568.73 600.5,-561 569.08,-551.22 535.06,-536.97 508.31,-524.87"/>
<polygon fill="#475569" stroke="#475569" stroke-width="1.35" points="509.4,-522.3 500.96,-521.52 507.08,-527.39 509.4,-522.3"/>
<text text-anchor="middle" x="639" y="-552.2" font-family="DejaVu Sans" font-size="11.00" fill="#334155">continue scan</text>
</g>
<!-- scan&#45;&gt;control -->
<g id="edge16" class="edge">
<title>scan&#45;&gt;control</title>
<path fill="none" stroke="#475569" stroke-width="1.35" d="M753.72,-580.8C745.05,-575.19 736.41,-568.53 729.5,-561 681.94,-509.14 673.96,-488.41 657.5,-420 653.13,-401.85 655.57,-396.57 657.5,-378 663.4,-321.3 720.13,-293.92 681.5,-252 663.07,-232 464.6,-234.3 437.5,-232 434.71,-231.76 431.89,-231.52 429.06,-231.28"/>
<polygon fill="#475569" stroke="#475569" stroke-width="1.35" points="429.25,-228.49 421.04,-230.59 428.78,-234.07 429.25,-228.49"/>
<text text-anchor="middle" x="693.5" y="-396.2" font-family="DejaVu Sans" font-size="11.00" fill="#334155">scan altitude</text>
</g>
<!-- scan&#45;&gt;hold -->
<g id="edge10" class="edge">
<title>scan&#45;&gt;hold</title>
<path fill="none" stroke="#475569" stroke-width="1.35" d="M780.51,-580.94C769.17,-561.45 754.5,-530.63 754.5,-501.5 754.5,-501.5 754.5,-501.5 754.5,-210 754.5,-192.6 754.5,-173.27 754.5,-157.13"/>
<polygon fill="#475569" stroke="#475569" stroke-width="1.35" points="757.3,-157.01 754.5,-149.01 751.7,-157.01 757.3,-157.01"/>
<text text-anchor="middle" x="797" y="-349.2" font-family="DejaVu Sans" font-size="11.00" fill="#334155">no active route</text>
</g>
<!-- scan&#45;&gt;inspect -->
<g id="edge9" class="edge">
<title>scan&#45;&gt;inspect</title>
<path fill="none" stroke="#475569" stroke-width="1.35" d="M816.77,-580.86C832.09,-567.61 852.49,-549.96 870.17,-534.66"/>
<polygon fill="#475569" stroke="#475569" stroke-width="1.35" points="872.33,-536.5 876.55,-529.15 868.67,-532.26 872.33,-536.5"/>
<text text-anchor="middle" x="915" y="-552.2" font-family="DejaVu Sans" font-size="11.00" fill="#334155">confirmed TargetFound</text>
</g>
<!-- route_latch&#45;&gt;waypoint -->
<g id="edge11" class="edge">
<title>route_latch&#45;&gt;waypoint</title>
<path fill="none" stroke="#475569" stroke-width="1.35" d="M459.3,-479.36C459.15,-464.66 458.95,-444.54 458.78,-428.23"/>
<polygon fill="#475569" stroke="#475569" stroke-width="1.35" points="461.58,-428.08 458.7,-420.11 455.98,-428.13 461.58,-428.08"/>
</g>
<!-- waypoint&#45;&gt;vfh -->
<g id="edge12" class="edge">
<title>waypoint&#45;&gt;vfh</title>
<path fill="none" stroke="#475569" stroke-width="1.35" d="M458.06,-377.58C457.78,-364.87 457.42,-348.33 457.12,-334.36"/>
<polygon fill="#475569" stroke="#475569" stroke-width="1.35" points="459.91,-333.98 456.94,-326.04 454.31,-334.1 459.91,-333.98"/>
<text text-anchor="middle" x="496.5" y="-349.2" font-family="DejaVu Sans" font-size="11.00" fill="#334155">goal direction</text>
</g>
<!-- vfh&#45;&gt;control -->
<g id="edge15" class="edge">
<title>vfh&#45;&gt;control</title>
<path fill="none" stroke="#475569" stroke-width="1.35" d="M402.82,-283.92C364.17,-269.47 311.96,-249.95 271.7,-234.89"/>
<polygon fill="#475569" stroke="#475569" stroke-width="1.35" points="272.54,-232.21 264.07,-232.03 270.58,-237.46 272.54,-232.21"/>
<text text-anchor="middle" x="393" y="-255.2" font-family="DejaVu Sans" font-size="11.00" fill="#334155">safe XY velocity</text>
</g>
<!-- vfh&#45;&gt;stuck -->
<g id="edge13" class="edge">
<title>vfh&#45;&gt;stuck</title>
<path fill="none" stroke="#475569" stroke-width="1.35" d="M483.49,-283.81C501.92,-270.03 526.45,-251.68 546.11,-236.98"/>
<polygon fill="#475569" stroke="#475569" stroke-width="1.35" points="547.84,-239.18 552.57,-232.14 544.49,-234.69 547.84,-239.18"/>
<text text-anchor="middle" x="615.5" y="-255.2" font-family="DejaVu Sans" font-size="11.00" fill="#334155">all sectors blocked / no progress</text>
</g>
<!-- control&#45;&gt;px4 -->
<g id="edge17" class="edge">
<title>control&#45;&gt;px4</title>
<path fill="none" stroke="#475569" stroke-width="1.35" d="M210.5,-189.92C210.5,-178.04 210.5,-162.8 210.5,-149.73"/>
<polygon fill="#475569" stroke="#475569" stroke-width="1.35" points="213.3,-149.5 210.5,-141.5 207.7,-149.5 213.3,-149.5"/>
</g>
<!-- px4&#45;&gt;feedback -->
<g id="edge18" class="edge">
<title>px4&#45;&gt;feedback</title>
<path fill="none" stroke="#475569" stroke-width="1.35" d="M210.5,-99.32C210.5,-87.64 210.5,-72.66 210.5,-59.32"/>
<polygon fill="#475569" stroke="#475569" stroke-width="1.35" points="213.3,-59.28 210.5,-51.28 207.7,-59.28 213.3,-59.28"/>
</g>
<!-- stuck&#45;&gt;hold -->
<g id="edge14" class="edge">
<title>stuck&#45;&gt;hold</title>
<path fill="none" stroke="#475569" stroke-width="1.35" d="M619.21,-189.92C640.96,-178.92 668.4,-165.04 692.87,-152.67"/>
<polygon fill="#475569" stroke="#475569" stroke-width="1.35" points="694.15,-155.16 700.02,-149.05 691.62,-150.16 694.15,-155.16"/>
</g>
<!-- title -->
<g id="node1" class="node">
<title>title</title>
<path fill="#f8fafc" stroke="transparent" stroke-width="1.3" d="M1182.33,-1138C1182.33,-1138 766.67,-1138 766.67,-1138 762.33,-1138 758,-1133.67 758,-1129.33 758,-1129.33 758,-1120.67 758,-1120.67 758,-1116.33 762.33,-1112 766.67,-1112 766.67,-1112 1182.33,-1112 1182.33,-1112 1186.67,-1112 1191,-1116.33 1191,-1120.67 1191,-1120.67 1191,-1129.33 1191,-1129.33 1191,-1133.67 1186.67,-1138 1182.33,-1138"/>
<text text-anchor="middle" x="974.5" y="-1118.8" font-family="DejaVu Sans" font-size="24.00" fill="#0f172a">Mode 2: SCAN Navigation Hierarchy</text>
</g>
<!-- sensors -->
<g id="node2" class="node">
<title>sensors</title>
<path fill="#dbeafe" stroke="#60a5fa" stroke-width="1.3" d="M1236,-1071C1236,-1071 713,-1071 713,-1071 707,-1071 701,-1065 701,-1059 701,-1059 701,-1041 701,-1041 701,-1035 707,-1029 713,-1029 713,-1029 1236,-1029 1236,-1029 1242,-1029 1248,-1035 1248,-1041 1248,-1041 1248,-1059 1248,-1059 1248,-1065 1242,-1071 1236,-1071"/>
<text text-anchor="middle" x="974.5" y="-1053.8" font-family="DejaVu Sans" font-size="14.00" fill="#0f172a">Sensor and pose inputs</text>
<text text-anchor="middle" x="974.5" y="-1038.8" font-family="DejaVu Sans" font-size="14.00" fill="#0f172a">RGB&#45;D depth | 2D LiDAR | SLAM/PX4 pose | range up/down | target detector</text>
</g>
<!-- mapper -->
<g id="node3" class="node">
<title>mapper</title>
<path fill="#dcfce7" stroke="#22c55e" stroke-width="1.3" d="M1178,-977C1178,-977 771,-977 771,-977 765,-977 759,-971 759,-965 759,-965 759,-947 759,-947 759,-941 765,-935 771,-935 771,-935 1178,-935 1178,-935 1184,-935 1190,-941 1190,-947 1190,-947 1190,-965 1190,-965 1190,-971 1184,-977 1178,-977"/>
<text text-anchor="middle" x="974.5" y="-959.8" font-family="DejaVu Sans" font-size="14.00" fill="#0f172a">Global exploration layer: voxel_mapper</text>
<text text-anchor="middle" x="974.5" y="-944.8" font-family="DejaVu Sans" font-size="14.00" fill="#0f172a">3D log&#45;odds voxel map &#45;&gt; altitude slice &#45;&gt; frontier clusters</text>
</g>
<!-- candidates -->
<g id="node4" class="node">
<title>candidates</title>
<path fill="#dcfce7" stroke="#22c55e" stroke-width="1.3" d="M1109.5,-894C1109.5,-894 839.5,-894 839.5,-894 833.5,-894 827.5,-888 827.5,-882 827.5,-882 827.5,-864 827.5,-864 827.5,-858 833.5,-852 839.5,-852 839.5,-852 1109.5,-852 1109.5,-852 1115.5,-852 1121.5,-858 1121.5,-864 1121.5,-864 1121.5,-882 1121.5,-882 1121.5,-888 1115.5,-894 1109.5,-894"/>
<text text-anchor="middle" x="974.5" y="-876.8" font-family="DejaVu Sans" font-size="14.00" fill="#0f172a">Candidate viewpoint generation</text>
<text text-anchor="middle" x="974.5" y="-861.8" font-family="DejaVu Sans" font-size="14.00" fill="#0f172a">standoff, yaw, world bounds, clearance</text>
</g>
<!-- scoring -->
<g id="node5" class="node">
<title>scoring</title>
<path fill="#bbf7d0" stroke="#16a34a" stroke-width="1.3" d="M1219.5,-811C1219.5,-811 729.5,-811 729.5,-811 723.5,-811 717.5,-805 717.5,-799 717.5,-799 717.5,-781 717.5,-781 717.5,-775 723.5,-769 729.5,-769 729.5,-769 1219.5,-769 1219.5,-769 1225.5,-769 1231.5,-775 1231.5,-781 1231.5,-781 1231.5,-799 1231.5,-799 1231.5,-805 1225.5,-811 1219.5,-811"/>
<text text-anchor="middle" x="974.5" y="-793.8" font-family="DejaVu Sans" font-size="14.00" fill="#0f172a">Viewpoint scoring</text>
<text text-anchor="middle" x="974.5" y="-778.8" font-family="DejaVu Sans" font-size="14.00" fill="#0f172a">information gain + A* path cost + yaw + progress + Voronoi clearance</text>
</g>
<!-- route -->
<g id="node6" class="node">
<title>route</title>
<path fill="#86efac" stroke="#15803d" stroke-width="1.3" d="M988,-717C988,-717 757,-717 757,-717 751,-717 745,-711 745,-705 745,-705 745,-687 745,-687 745,-681 751,-675 757,-675 757,-675 988,-675 988,-675 994,-675 1000,-681 1000,-687 1000,-687 1000,-705 1000,-705 1000,-711 994,-717 988,-717"/>
<text text-anchor="middle" x="872.5" y="-699.8" font-family="DejaVu Sans" font-size="14.00" fill="#0f172a">Selected route</text>
<text text-anchor="middle" x="872.5" y="-684.8" font-family="DejaVu Sans" font-size="14.00" fill="#0f172a">A* frontier_path to best viewpoint</text>
</g>
<!-- scan -->
<g id="node7" class="node">
<title>scan</title>
<path fill="#ede9fe" stroke="#8b5cf6" stroke-width="1.3" d="M963,-623C963,-623 624,-623 624,-623 618,-623 612,-617 612,-611 612,-611 612,-593 612,-593 612,-587 618,-581 624,-581 624,-581 963,-581 963,-581 969,-581 975,-587 975,-593 975,-593 975,-611 975,-611 975,-617 969,-623 963,-623"/>
<text text-anchor="middle" x="793.5" y="-605.8" font-family="DejaVu Sans" font-size="14.00" fill="#0f172a">Mode 2 SCAN FSM</text>
<text text-anchor="middle" x="793.5" y="-590.8" font-family="DejaVu Sans" font-size="14.00" fill="#0f172a">coverage / timeout / layer / safety / target checks</text>
</g>
<!-- route_latch -->
<g id="node8" class="node">
<title>route_latch</title>
<path fill="#ede9fe" stroke="#8b5cf6" stroke-width="1.3" d="M627,-521.5C627,-521.5 292,-521.5 292,-521.5 286,-521.5 280,-515.5 280,-509.5 280,-509.5 280,-491.5 280,-491.5 280,-485.5 286,-479.5 292,-479.5 292,-479.5 627,-479.5 627,-479.5 633,-479.5 639,-485.5 639,-491.5 639,-491.5 639,-509.5 639,-509.5 639,-515.5 633,-521.5 627,-521.5"/>
<text text-anchor="middle" x="459.5" y="-504.3" font-family="DejaVu Sans" font-size="14.00" fill="#0f172a">Route latch</text>
<text text-anchor="middle" x="459.5" y="-489.3" font-family="DejaVu Sans" font-size="14.00" fill="#0f172a">follow active frontier_path waypoint&#45;by&#45;waypoint</text>
</g>
<!-- waypoint -->
<g id="node9" class="node">
<title>waypoint</title>
<path fill="#ede9fe" stroke="#8b5cf6" stroke-width="1.3" d="M544,-420C544,-420 373,-420 373,-420 367,-420 361,-414 361,-408 361,-408 361,-390 361,-390 361,-384 367,-378 373,-378 373,-378 544,-378 544,-378 550,-378 556,-384 556,-390 556,-390 556,-408 556,-408 556,-414 550,-420 544,-420"/>
<text text-anchor="middle" x="458.5" y="-402.8" font-family="DejaVu Sans" font-size="14.00" fill="#0f172a">Active waypoint</text>
<text text-anchor="middle" x="458.5" y="-387.8" font-family="DejaVu Sans" font-size="14.00" fill="#0f172a">N/E target + desired yaw</text>
</g>
<!-- vfh -->
<g id="node10" class="node">
<title>vfh</title>
<path fill="#ddd6fe" stroke="#7c3aed" stroke-width="1.3" d="M627.5,-326C627.5,-326 285.5,-326 285.5,-326 279.5,-326 273.5,-320 273.5,-314 273.5,-314 273.5,-296 273.5,-296 273.5,-290 279.5,-284 285.5,-284 285.5,-284 627.5,-284 627.5,-284 633.5,-284 639.5,-290 639.5,-296 639.5,-296 639.5,-314 639.5,-314 639.5,-320 633.5,-326 627.5,-326"/>
<text text-anchor="middle" x="456.5" y="-308.8" font-family="DejaVu Sans" font-size="14.00" fill="#0f172a">Holonomic VFH local safety</text>
<text text-anchor="middle" x="456.5" y="-293.8" font-family="DejaVu Sans" font-size="14.00" fill="#0f172a">72&#45;sector LiDAR histogram &#45;&gt; closest open valley</text>
</g>
<!-- control -->
<g id="node11" class="node">
<title>control</title>
<path fill="#ddd6fe" stroke="#7c3aed" stroke-width="1.3" d="M409,-232C409,-232 12,-232 12,-232 6,-232 0,-226 0,-220 0,-220 0,-202 0,-202 0,-196 6,-190 12,-190 12,-190 409,-190 409,-190 415,-190 421,-196 421,-202 421,-202 421,-220 421,-220 421,-226 415,-232 409,-232"/>
<text text-anchor="middle" x="210.5" y="-214.8" font-family="DejaVu Sans" font-size="14.00" fill="#0f172a">Perception&#45;aware motion command</text>
<text text-anchor="middle" x="210.5" y="-199.8" font-family="DejaVu Sans" font-size="14.00" fill="#0f172a">camera yaw tracking + speed scaling + altitude P&#45;control</text>
</g>
<!-- px4 -->
<g id="node12" class="node">
<title>px4</title>
<path fill="#fed7aa" stroke="#f97316" stroke-width="1.3" d="M320,-141.5C320,-141.5 101,-141.5 101,-141.5 95,-141.5 89,-135.5 89,-129.5 89,-129.5 89,-111.5 89,-111.5 89,-105.5 95,-99.5 101,-99.5 101,-99.5 320,-99.5 320,-99.5 326,-99.5 332,-105.5 332,-111.5 332,-111.5 332,-129.5 332,-129.5 332,-135.5 326,-141.5 320,-141.5"/>
<text text-anchor="middle" x="210.5" y="-124.3" font-family="DejaVu Sans" font-size="14.00" fill="#0f172a">PX4 Offboard velocity setpoint</text>
<text text-anchor="middle" x="210.5" y="-109.3" font-family="DejaVu Sans" font-size="14.00" fill="#0f172a">vn, ve, vz, yaw &#45;&gt; drone motion</text>
</g>
<!-- hold -->
<g id="node13" class="node">
<title>hold</title>
<path fill="#fef9c3" stroke="#eab308" stroke-width="1.3" d="M858,-149C858,-149 651,-149 651,-149 645,-149 639,-143 639,-137 639,-137 639,-104 639,-104 639,-98 645,-92 651,-92 651,-92 858,-92 858,-92 864,-92 870,-98 870,-104 870,-104 870,-137 870,-137 870,-143 864,-149 858,-149"/>
<text text-anchor="middle" x="754.5" y="-131.8" font-family="DejaVu Sans" font-size="14.00" fill="#0f172a">No valid route</text>
<text text-anchor="middle" x="754.5" y="-116.8" font-family="DejaVu Sans" font-size="14.00" fill="#0f172a">hold position + slow yaw scan</text>
<text text-anchor="middle" x="754.5" y="-101.8" font-family="DejaVu Sans" font-size="14.00" fill="#0f172a">wait for mapper</text>
</g>
<!-- inspect -->
<g id="node14" class="node">
<title>inspect</title>
<path fill="#fce7f3" stroke="#ec4899" stroke-width="1.3" d="M1001,-529C1001,-529 816,-529 816,-529 810,-529 804,-523 804,-517 804,-517 804,-484 804,-484 804,-478 810,-472 816,-472 816,-472 1001,-472 1001,-472 1007,-472 1013,-478 1013,-484 1013,-484 1013,-517 1013,-517 1013,-523 1007,-529 1001,-529"/>
<text text-anchor="middle" x="908.5" y="-511.8" font-family="DejaVu Sans" font-size="14.00" fill="#0f172a">Target found</text>
<text text-anchor="middle" x="908.5" y="-496.8" font-family="DejaVu Sans" font-size="14.00" fill="#0f172a">hold XY, look at target 10 s</text>
<text text-anchor="middle" x="908.5" y="-481.8" font-family="DejaVu Sans" font-size="14.00" fill="#0f172a">then resume SCAN</text>
</g>
<!-- stuck -->
<g id="node15" class="node">
<title>stuck</title>
<path fill="#fee2e2" stroke="#ef4444" stroke-width="1.3" d="M693.5,-232C693.5,-232 465.5,-232 465.5,-232 459.5,-232 453.5,-226 453.5,-220 453.5,-220 453.5,-202 453.5,-202 453.5,-196 459.5,-190 465.5,-190 465.5,-190 693.5,-190 693.5,-190 699.5,-190 705.5,-196 705.5,-202 705.5,-202 705.5,-220 705.5,-220 705.5,-226 699.5,-232 693.5,-232"/>
<text text-anchor="middle" x="579.5" y="-214.8" font-family="DejaVu Sans" font-size="14.00" fill="#0f172a">Route stalled / blocked</text>
<text text-anchor="middle" x="579.5" y="-199.8" font-family="DejaVu Sans" font-size="14.00" fill="#0f172a">clear route and request new path</text>
</g>
<!-- feedback -->
<g id="node16" class="node">
<title>feedback</title>
<polygon fill="#f1f5f9" stroke="#94a3b8" stroke-width="1.3" points="327.5,-51 87.5,-51 87.5,0 333.5,0 333.5,-45 327.5,-51"/>
<polyline fill="none" stroke="#94a3b8" stroke-width="1.3" points="327.5,-51 327.5,-45 "/>
<polyline fill="none" stroke="#94a3b8" stroke-width="1.3" points="333.5,-45 327.5,-45 "/>
<text text-anchor="middle" x="210.5" y="-35.4" font-family="DejaVu Sans" font-size="12.00" fill="#0f172a">Closed&#45;loop feedback:</text>
<text text-anchor="middle" x="210.5" y="-22.4" font-family="DejaVu Sans" font-size="12.00" fill="#0f172a">new motion creates new sensor data</text>
<text text-anchor="middle" x="210.5" y="-9.4" font-family="DejaVu Sans" font-size="12.00" fill="#0f172a">and updates the map on the next tick</text>
</g>
</g>
</svg>
